HIERARCHY
ROOT Hips
{
	OFFSET 0.000000 8.830580 0.000000
	CHANNELS 6 Xposition Yposition Zposition Zrotation Yrotation Xrotation 
	JOINT Spine
	{
		OFFSET 0.000000 0.010000 0.000000
		CHANNELS 3 Zrotation Yrotation Xrotation
		JOINT Spine1
		{
			OFFSET 0.000000 2.459130 0.000000
			CHANNELS 3 Zrotation Yrotation Xrotation
			JOINT Neck
			{
				OFFSET 0.000000 2.484630 0.000000
				CHANNELS 3 Zrotation Yrotation Xrotation
				JOINT Head_virtual
				{
					OFFSET 0.000000 0.000000 0.000000
					CHANNELS 3 Zrotation Yrotation Xrotation
					JOINT Head
					{
						OFFSET 0.000000 0.927525 0.000000
						CHANNELS 3 Zrotation Yrotation Xrotation
						End Site
						{
							OFFSET 0.000000 0.000000 0.000000
						}
					}
				}
				JOINT LeftUpArm_virtual
				{
					OFFSET 0.000000 0.000000 0.000000
					CHANNELS 3 Zrotation Yrotation Xrotation
					JOINT LeftUpArm
					{
						OFFSET 1.248820 0.000000 0.000000
						CHANNELS 3 Zrotation Yrotation Xrotation
						JOINT LeftForeArm
						{
							OFFSET 2.597580 0.000000 0.000000
							CHANNELS 3 Zrotation Yrotation Xrotation
							JOINT LeftHand
							{
								OFFSET 2.455420 0.000000 0.000000
								CHANNELS 3 Zrotation Yrotation Xrotation
								End Site
								{
									OFFSET 0.000000 0.000000 0.000000
								}
							}
						}
					}
				}
				JOINT RightUpArm_virtual
				{
					OFFSET -0.000000 -0.000000 -0.000000
					CHANNELS 3 Zrotation Yrotation Xrotation
					JOINT RightUpArm
					{
						OFFSET -1.248820 -0.000000 -0.000000
						CHANNELS 3 Zrotation Yrotation Xrotation
						JOINT RightForeArm
						{
							OFFSET -2.597580 -0.000000 -0.000000
							CHANNELS 3 Zrotation Yrotation Xrotation
							JOINT RightHand
							{
								OFFSET -2.455420 -0.000000 -0.000000
								CHANNELS 3 Zrotation Yrotation Xrotation
								End Site
								{
									OFFSET 0.000000 0.000000 0.000000
								}
							}
						}
					}
				}
			}
		}
	}
	JOINT LeftUpLeg
	{
		OFFSET 1.271939 0.000000 0.000000
		CHANNELS 3 Zrotation Yrotation Xrotation
		JOINT LeftLowLeg
		{
			OFFSET 0.000000 -4.342910 0.000000
			CHANNELS 3 Zrotation Yrotation Xrotation
			JOINT LeftFoot
			{
				OFFSET 0.000000 -4.487670 0.000000
				CHANNELS 3 Zrotation Yrotation Xrotation
				JOINT LeftToeBase
				{
					OFFSET 0.000000 0.000000 1.515070
					CHANNELS 3 Zrotation Yrotation Xrotation
					End Site
					{
						OFFSET 0.000000 0.000000 0.000000
					}
				}
			}
		}
	}
	JOINT RightUpLeg
	{
		OFFSET -1.271939 0.000000 0.000000
		CHANNELS 3 Zrotation Yrotation Xrotation
		JOINT RightLowLeg
		{
			OFFSET 0.000000 -4.342910 0.000000
			CHANNELS 3 Zrotation Yrotation Xrotation
			JOINT RightFoot
			{
				OFFSET 0.000000 -4.487670 0.000000
				CHANNELS 3 Zrotation Yrotation Xrotation
				JOINT RightToeBase
				{
					OFFSET 0.000000 0.000000 1.515070
					CHANNELS 3 Zrotation Yrotation Xrotation
					End Site
					{
						OFFSET 0.000000 0.000000 0.000000
					}
				}
			}
		}
	}
}
MOTION
Frames: 11
Frame Time: 0.041667
-17.534202 9.196362 44.881258 -174.730765 0.465332 -173.502931 3.215247 -1.414059 -10.120515 0.475686 -1.866510 5.987228 0.000000 0.000000 0.000000 -2.431905 2.366793 -5.754550 6.689168 6.801189 -51.187651 -1.868560 13.822000 -3.414810 -9.018570 -2.973920 -28.959801 0.000000 -20.374599 0.000000 23.146601 8.633970 28.411400 8.714180 -10.189700 0.113177 10.695400 0.094228 -35.034100 0.000000 21.912600 0.000000 -18.942101 -3.208980 24.632200 6.135535 -1.858955 -6.176043 0.000000 0.000000 8.058520 9.769773 0.802333 4.845476 0.000000 0.000000 -32.847500 3.071481 5.638118 -3.480599 0.000000 0.000000 6.642510 6.934390 -7.582416 9.503206 0.000000 0.000000 -27.153800 
-17.534202 9.196362 44.881258 -174.730765 0.465332 -173.502931 3.215247 -1.414059 -10.120515 0.475686 -1.866510 5.987228 0.000000 0.000000 0.000000 -2.431905 2.366793 -5.754550 6.689168 6.801189 -51.187651 -1.868560 13.822000 -3.414810 -9.018570 -2.973920 -28.959801 0.000000 -20.374599 0.000000 23.146601 8.633970 28.411400 8.714180 -10.189700 0.113177 10.695400 0.094228 -35.034100 0.000000 21.912600 0.000000 -18.942101 -3.208980 24.632200 6.135535 -1.858955 -6.176043 0.000000 0.000000 8.058520 9.769773 0.802333 4.845476 0.000000 0.000000 -32.847500 3.071481 5.638118 -3.480599 0.000000 0.000000 6.642510 6.934390 -7.582416 9.503206 0.000000 0.000000 -27.153800 
-17.534339 9.196430 44.881124 -174.727188 0.464322 -173.507900 3.237964 -1.408848 -10.085281 0.451500 -1.868145 5.965652 0.000000 0.000000 0.000000 -2.410352 2.367746 -5.766120 6.696065 6.822435 -51.198239 -1.863430 13.823600 -3.415710 -9.033720 -2.979450 -28.979300 0.000000 -20.313400 0.000000 23.312901 8.803590 27.874901 8.698280 -10.140100 0.063656 10.731300 -0.015143 -35.105000 0.000000 21.942900 0.000000 -18.892000 -3.268470 24.636600 6.136760 -1.831083 -6.163039 0.000000 0.000000 8.045320 9.776033 0.776964 4.845547 0.000000 0.000000 -32.854601 3.074377 5.660472 -3.479909 0.000000 0.000000 6.652110 6.929738 -7.605243 9.500385 0.000000 0.000000 -27.172700 
-17.534393 9.196411 44.880991 -174.727707 0.464087 -173.500434 3.243941 -1.397743 -10.071428 0.445767 -1.859025 5.956567 0.000000 0.000000 0.000000 -2.380430 2.349174 -5.767863 6.717109 6.827205 -51.216768 -1.853180 13.808800 -3.406090 -9.080050 -2.989080 -29.127001 0.000000 -20.305599 0.000000 23.366199 8.821060 27.970301 8.720480 -10.205900 0.103244 10.709000 0.049471 -35.254398 0.000000 21.938601 0.000000 -18.858299 -3.306920 24.652500 6.135718 -1.821388 -6.174982 0.000000 0.000000 8.054610 9.811727 0.779053 4.837248 0.000000 0.000000 -32.851200 3.073500 5.663497 -3.484892 0.000000 0.000000 6.648930 6.929358 -7.612265 9.504175 0.000000 0.000000 -27.157200 
-17.534372 9.196274 44.880780 -174.726229 0.461949 -173.498518 3.249075 -1.402039 -10.066345 0.446912 -1.864688 5.961408 0.000000 0.000000 0.000000 -2.381053 2.338343 -5.800350 6.765711 6.794205 -51.178473 -1.850040 13.796500 -3.386940 -9.109820 -2.953090 -29.195000 0.000000 -20.344299 0.000000 23.396500 8.861280 28.036501 8.717660 -10.201100 0.116838 10.705900 0.043720 -35.246799 0.000000 21.950500 0.000000 -18.828100 -3.285580 24.669901 6.139371 -1.842965 -6.179919 0.000000 0.000000 8.063000 9.798526 0.790832 4.823761 0.000000 0.000000 -32.823700 3.076365 5.656847 -3.485173 0.000000 0.000000 6.650050 6.920615 -7.610947 9.500361 0.000000 0.000000 -27.164800 
-17.534226 9.196202 44.880414 -174.728303 0.460099 -173.499795 3.250655 -1.400892 -10.069641 0.443507 -1.864135 5.983618 0.000000 0.000000 0.000000 -2.380639 2.333542 -5.807543 6.785456 6.782797 -51.172818 -1.855900 13.774200 -3.388120 -9.096700 -2.910320 -29.111401 0.000000 -20.363701 0.000000 23.402000 8.887290 28.010700 8.705590 -10.193400 0.087513 10.726200 0.012715 -35.200100 0.000000 21.990499 0.000000 -18.819401 -3.367540 24.672199 6.136545 -1.812033 -6.180583 0.000000 0.000000 8.071410 9.784365 0.758238 4.823724 0.000000 0.000000 -32.854300 3.076755 5.639881 -3.477957 0.000000 0.000000 6.644790 6.917533 -7.602207 9.494414 0.000000 0.000000 -27.165500 
-17.533967 9.196125 44.879973 -174.727730 0.473752 -173.490798 3.249983 -1.401767 -10.081249 0.447819 -1.864796 6.011615 0.000000 0.000000 0.000000 -2.375726 2.327166 -5.817067 6.805612 6.769262 -51.142117 -1.850170 13.772600 -3.390740 -9.106660 -2.885100 -29.080400 0.000000 -20.360399 0.000000 23.360701 8.860110 28.088900 8.702480 -10.138100 0.104620 10.725300 -0.032978 -35.231098 0.000000 21.956301 0.000000 -18.740700 -3.289060 24.638300 6.139051 -1.837481 -6.176008 0.000000 0.000000 8.055660 9.803793 0.800380 4.826672 0.000000 0.000000 -32.847099 3.075359 5.649874 -3.487694 0.000000 0.000000 6.647580 6.933152 -7.588979 9.492373 0.000000 0.000000 -27.154300 
-17.533634 9.196228 44.879576 -174.725700 0.482190 -173.477776 3.246507 -1.396922 -10.088230 0.456647 -1.858926 6.015017 0.000000 0.000000 0.000000 -2.356956 2.318715 -5.785770 6.789809 6.781072 -51.135821 -1.840490 13.783200 -3.380300 -9.136290 -2.912070 -29.161400 0.000000 -20.361500 0.000000 23.334400 8.883570 28.116600 8.688440 -10.139900 0.130458 10.735900 -0.020796 -35.241299 0.000000 21.933701 0.000000 -18.730801 -3.315770 24.752899 6.142091 -1.807056 -6.176654 0.000000 0.000000 8.041570 9.766369 0.770836 4.828938 0.000000 0.000000 -32.853399 3.076235 5.676458 -3.497281 0.000000 0.000000 6.643170 6.932688 -7.602811 9.497465 0.000000 0.000000 -27.162500 
-17.533379 9.196243 44.878945 -174.726967 0.481507 -173.456483 3.247922 -1.393185 -10.107719 0.455460 -1.855546 6.017767 0.000000 0.000000 0.000000 -2.348920 2.321045 -5.744214 6.769004 6.796035 -51.126833 -1.831640 13.778600 -3.387180 -9.162150 -2.914170 -29.213600 0.000000 -20.383699 0.000000 23.269100 8.938080 28.022699 8.711050 -10.147800 0.122606 10.696500 -0.010763 -35.196602 0.000000 21.914301 0.000000 -18.714199 -3.307420 24.828100 6.141274 -1.792529 -6.185959 0.000000 0.000000 8.025380 9.779065 0.768801 4.833936 0.000000 0.000000 -32.859800 3.076113 5.674957 -3.501342 0.000000 0.000000 6.616850 6.916110 -7.609716 9.504329 0.000000 0.000000 -27.147000 
-17.532924 9.196228 44.878573 -174.728267 0.481098 -173.443376 3.241570 -1.398062 -10.113643 0.471917 -1.858277 6.015795 0.000000 0.000000 0.000000 -2.365618 2.343741 -5.694673 6.721975 6.815710 -51.105826 -1.858380 13.776800 -3.386400 -9.149570 -2.915440 -29.206400 0.000000 -20.387199 0.000000 23.259600 8.889850 28.066900 8.730110 -10.142500 0.088616 10.665500 0.002052 -35.217602 0.000000 21.907700 0.000000 -18.711300 -3.307210 24.894600 6.141416 -1.774692 -6.197915 0.000000 0.000000 8.028630 9.777592 0.754285 4.829820 0.000000 0.000000 -32.859301 3.077208 5.675367 -3.499525 0.000000 0.000000 6.593400 6.919091 -7.611848 9.505609 0.000000 0.000000 -27.144200 
-17.532501 9.196162 44.878278 -174.730720 0.474810 -173.431402 3.242219 -1.406024 -10.116378 0.468280 -1.866257 6.005937 0.000000 0.000000 0.000000 -2.370053 2.359839 -5.644634 6.684156 6.837909 -51.089166 -1.863920 13.759800 -3.377030 -9.134300 -2.880900 -29.099800 0.000000 -20.399000 0.000000 23.297100 8.868720 28.094200 8.721640 -10.140200 0.103314 10.690600 0.022013 -35.210400 0.000000 21.908701 0.000000 -18.733900 -3.238200 24.947800 6.141731 -1.784978 -6.213717 0.000000 0.000000 8.035390 9.765857 0.760357 4.831427 0.000000 0.000000 -32.883101 3.077908 5.648469 -3.509009 0.000000 0.000000 6.593530 6.915131 -7.594763 9.504914 0.000000 0.000000 -27.169700 
